<mxfile host="65bd71144e">
    <diagram id="OeAGyayqflI3GLn84OAo" name="Page-1">
        <mxGraphModel dx="657" dy="632" grid="1" gridSize="10" guides="1" tooltips="1" connect="1" arrows="1" fold="1" page="1" pageScale="1" pageWidth="1920" pageHeight="1200" math="0" shadow="0">
            <root>
                <mxCell id="0"/>
                <mxCell id="1" parent="0"/>
                <mxCell id="2" value="CarAssembler" style="rounded=0;whiteSpace=wrap;html=1;" parent="1" vertex="1">
                    <mxGeometry x="480" y="160" width="120" height="60" as="geometry"/>
                </mxCell>
                <mxCell id="24" style="edgeStyle=none;html=1;exitX=0.5;exitY=1;exitDx=0;exitDy=0;entryX=0.5;entryY=0;entryDx=0;entryDy=0;endArrow=open;endFill=0;" parent="1" source="2" target="25" edge="1">
                    <mxGeometry relative="1" as="geometry">
                        <mxPoint x="640" y="310" as="targetPoint"/>
                    </mxGeometry>
                </mxCell>
                <mxCell id="25" value="&amp;lt;&amp;lt;Abstract&amp;gt;&amp;gt;&lt;div&gt;PartsFactory&lt;/div&gt;" style="swimlane;fontStyle=1;align=center;verticalAlign=top;childLayout=stackLayout;horizontal=1;startSize=40;horizontalStack=0;resizeParent=1;resizeParentMax=0;resizeLast=0;collapsible=1;marginBottom=0;whiteSpace=wrap;html=1;" vertex="1" parent="1">
                    <mxGeometry x="460" y="320" width="210" height="160" as="geometry">
                        <mxRectangle x="460" y="320" width="110" height="40" as="alternateBounds"/>
                    </mxGeometry>
                </mxCell>
                <mxCell id="26" value="..." style="text;strokeColor=none;fillColor=none;align=left;verticalAlign=top;spacingLeft=4;spacingRight=4;overflow=hidden;rotatable=0;points=[[0,0.5],[1,0.5]];portConstraint=eastwest;whiteSpace=wrap;html=1;" vertex="1" parent="25">
                    <mxGeometry y="40" width="210" height="26" as="geometry"/>
                </mxCell>
                <mxCell id="27" value="" style="line;strokeWidth=1;fillColor=none;align=left;verticalAlign=middle;spacingTop=-1;spacingLeft=3;spacingRight=3;rotatable=0;labelPosition=right;points=[];portConstraint=eastwest;strokeColor=inherit;" vertex="1" parent="25">
                    <mxGeometry y="66" width="210" height="8" as="geometry"/>
                </mxCell>
                <mxCell id="29" style="edgeStyle=none;html=1;" edge="1" parent="25" source="28">
                    <mxGeometry relative="1" as="geometry">
                        <mxPoint x="300" y="117" as="targetPoint"/>
                    </mxGeometry>
                </mxCell>
                <mxCell id="28" value="+ getEngine():Engine&lt;div&gt;&lt;font color=&quot;#ffffff&quot;&gt;&lt;br&gt;&lt;/font&gt;&lt;div&gt;+ getType(): Type&lt;/div&gt;&lt;div&gt;&lt;br&gt;&lt;/div&gt;&lt;div&gt;...&lt;/div&gt;&lt;/div&gt;" style="text;strokeColor=none;fillColor=none;align=left;verticalAlign=top;spacingLeft=4;spacingRight=4;overflow=hidden;rotatable=0;points=[[0,0.5],[1,0.5]];portConstraint=eastwest;whiteSpace=wrap;html=1;" vertex="1" parent="25">
                    <mxGeometry y="74" width="210" height="86" as="geometry"/>
                </mxCell>
                <mxCell id="30" value="WaltonFactory" style="html=1;whiteSpace=wrap;" vertex="1" parent="1">
                    <mxGeometry x="760" y="412" width="110" height="50" as="geometry"/>
                </mxCell>
            </root>
        </mxGraphModel>
    </diagram>
</mxfile>